%TF.GenerationSoftware,KiCad,Pcbnew,6.0.10*%
%TF.CreationDate,2023-02-04T17:50:08-06:00*%
%TF.ProjectId,button-clicker,62757474-6f6e-42d6-936c-69636b65722e,rev?*%
%TF.SameCoordinates,Original*%
%TF.FileFunction,Paste,Bot*%
%TF.FilePolarity,Positive*%
%FSLAX46Y46*%
G04 Gerber Fmt 4.6, Leading zero omitted, Abs format (unit mm)*
G04 Created by KiCad (PCBNEW 6.0.10) date 2023-02-04 17:50:08*
%MOMM*%
%LPD*%
G01*
G04 APERTURE LIST*
G04 Aperture macros list*
%AMRoundRect*
0 Rectangle with rounded corners*
0 $1 Rounding radius*
0 $2 $3 $4 $5 $6 $7 $8 $9 X,Y pos of 4 corners*
0 Add a 4 corners polygon primitive as box body*
4,1,4,$2,$3,$4,$5,$6,$7,$8,$9,$2,$3,0*
0 Add four circle primitives for the rounded corners*
1,1,$1+$1,$2,$3*
1,1,$1+$1,$4,$5*
1,1,$1+$1,$6,$7*
1,1,$1+$1,$8,$9*
0 Add four rect primitives between the rounded corners*
20,1,$1+$1,$2,$3,$4,$5,0*
20,1,$1+$1,$4,$5,$6,$7,0*
20,1,$1+$1,$6,$7,$8,$9,0*
20,1,$1+$1,$8,$9,$2,$3,0*%
G04 Aperture macros list end*
%ADD10RoundRect,0.150000X0.512500X0.150000X-0.512500X0.150000X-0.512500X-0.150000X0.512500X-0.150000X0*%
%ADD11RoundRect,0.200000X0.200000X0.275000X-0.200000X0.275000X-0.200000X-0.275000X0.200000X-0.275000X0*%
%ADD12RoundRect,0.100000X0.100000X-0.637500X0.100000X0.637500X-0.100000X0.637500X-0.100000X-0.637500X0*%
%ADD13RoundRect,0.225000X-0.250000X0.225000X-0.250000X-0.225000X0.250000X-0.225000X0.250000X0.225000X0*%
%ADD14RoundRect,0.200000X-0.200000X-0.275000X0.200000X-0.275000X0.200000X0.275000X-0.200000X0.275000X0*%
%ADD15RoundRect,0.225000X-0.225000X-0.250000X0.225000X-0.250000X0.225000X0.250000X-0.225000X0.250000X0*%
%ADD16R,2.500000X1.800000*%
%ADD17R,0.650000X1.050000*%
%ADD18R,0.600000X0.700000*%
%ADD19R,5.080000X1.270000*%
%ADD20RoundRect,0.200000X0.275000X-0.200000X0.275000X0.200000X-0.275000X0.200000X-0.275000X-0.200000X0*%
%ADD21R,0.700000X0.600000*%
%ADD22RoundRect,0.200000X-0.275000X0.200000X-0.275000X-0.200000X0.275000X-0.200000X0.275000X0.200000X0*%
G04 APERTURE END LIST*
D10*
%TO.C,U1*%
X113337500Y-41250000D03*
X113337500Y-42200000D03*
X113337500Y-43150000D03*
X111062500Y-43150000D03*
X111062500Y-41250000D03*
%TD*%
D11*
%TO.C,R46*%
X55425000Y-21700000D03*
X53775000Y-21700000D03*
%TD*%
D12*
%TO.C,U3*%
X78775000Y-42113220D03*
X78125000Y-42113220D03*
X77475000Y-42113220D03*
X76825000Y-42113220D03*
X76175000Y-42113220D03*
X75525000Y-42113220D03*
X74875000Y-42113220D03*
X74225000Y-42113220D03*
X74225000Y-36388220D03*
X74875000Y-36388220D03*
X75525000Y-36388220D03*
X76175000Y-36388220D03*
X76825000Y-36388220D03*
X77475000Y-36388220D03*
X78125000Y-36388220D03*
X78775000Y-36388220D03*
%TD*%
D13*
%TO.C,C3*%
X109034735Y-36090265D03*
X109034735Y-37640265D03*
%TD*%
%TO.C,C6*%
X72900000Y-36100720D03*
X72900000Y-37650720D03*
%TD*%
D14*
%TO.C,R15*%
X89275000Y-28600000D03*
X90925000Y-28600000D03*
%TD*%
%TO.C,R43*%
X53775000Y-28600000D03*
X55425000Y-28600000D03*
%TD*%
D15*
%TO.C,C2*%
X111325000Y-39600000D03*
X112875000Y-39600000D03*
%TD*%
D13*
%TO.C,C7*%
X65500000Y-36050000D03*
X65500000Y-37600000D03*
%TD*%
D12*
%TO.C,U5*%
X107709735Y-42127765D03*
X107059735Y-42127765D03*
X106409735Y-42127765D03*
X105759735Y-42127765D03*
X105109735Y-42127765D03*
X104459735Y-42127765D03*
X103809735Y-42127765D03*
X103159735Y-42127765D03*
X103159735Y-36402765D03*
X103809735Y-36402765D03*
X104459735Y-36402765D03*
X105109735Y-36402765D03*
X105759735Y-36402765D03*
X106409735Y-36402765D03*
X107059735Y-36402765D03*
X107709735Y-36402765D03*
%TD*%
D13*
%TO.C,C4*%
X94634735Y-36115265D03*
X94634735Y-37665265D03*
%TD*%
D16*
%TO.C,D1*%
X48200000Y-23000000D03*
X44200000Y-23000000D03*
%TD*%
D14*
%TO.C,R13*%
X89300000Y-25200000D03*
X90950000Y-25200000D03*
%TD*%
%TO.C,R7*%
X98175000Y-26900000D03*
X99825000Y-26900000D03*
%TD*%
%TO.C,R27*%
X71575000Y-25200000D03*
X73225000Y-25200000D03*
%TD*%
%TO.C,R29*%
X71575000Y-28600000D03*
X73225000Y-28600000D03*
%TD*%
D12*
%TO.C,U6*%
X93309735Y-42127765D03*
X92659735Y-42127765D03*
X92009735Y-42127765D03*
X91359735Y-42127765D03*
X90709735Y-42127765D03*
X90059735Y-42127765D03*
X89409735Y-42127765D03*
X88759735Y-42127765D03*
X88759735Y-36402765D03*
X89409735Y-36402765D03*
X90059735Y-36402765D03*
X90709735Y-36402765D03*
X91359735Y-36402765D03*
X92009735Y-36402765D03*
X92659735Y-36402765D03*
X93309735Y-36402765D03*
%TD*%
%TO.C,U2*%
X100509735Y-42127765D03*
X99859735Y-42127765D03*
X99209735Y-42127765D03*
X98559735Y-42127765D03*
X97909735Y-42127765D03*
X97259735Y-42127765D03*
X96609735Y-42127765D03*
X95959735Y-42127765D03*
X95959735Y-36402765D03*
X96609735Y-36402765D03*
X97259735Y-36402765D03*
X97909735Y-36402765D03*
X98559735Y-36402765D03*
X99209735Y-36402765D03*
X99859735Y-36402765D03*
X100509735Y-36402765D03*
%TD*%
D14*
%TO.C,R20*%
X80375000Y-25200000D03*
X82025000Y-25200000D03*
%TD*%
D11*
%TO.C,R24*%
X82025000Y-30400000D03*
X80375000Y-30400000D03*
%TD*%
D14*
%TO.C,R41*%
X53775000Y-25200000D03*
X55425000Y-25200000D03*
%TD*%
%TO.C,R36*%
X62675000Y-28600000D03*
X64325000Y-28600000D03*
%TD*%
D11*
%TO.C,R40*%
X64325000Y-23400000D03*
X62675000Y-23400000D03*
%TD*%
D17*
%TO.C,SW3*%
X48875000Y-25825000D03*
X48875000Y-29975000D03*
X46725000Y-29975000D03*
X46725000Y-25850000D03*
%TD*%
D12*
%TO.C,U7*%
X85975000Y-42113220D03*
X85325000Y-42113220D03*
X84675000Y-42113220D03*
X84025000Y-42113220D03*
X83375000Y-42113220D03*
X82725000Y-42113220D03*
X82075000Y-42113220D03*
X81425000Y-42113220D03*
X81425000Y-36388220D03*
X82075000Y-36388220D03*
X82725000Y-36388220D03*
X83375000Y-36388220D03*
X84025000Y-36388220D03*
X84675000Y-36388220D03*
X85325000Y-36388220D03*
X85975000Y-36388220D03*
%TD*%
D11*
%TO.C,R9*%
X99825000Y-32200000D03*
X98175000Y-32200000D03*
%TD*%
%TO.C,R38*%
X64325000Y-30400000D03*
X62675000Y-30400000D03*
%TD*%
D13*
%TO.C,C8*%
X51100000Y-36075000D03*
X51100000Y-37625000D03*
%TD*%
%TO.C,C9*%
X101834735Y-35979206D03*
X101834735Y-37529206D03*
%TD*%
D12*
%TO.C,U10*%
X49775000Y-42112500D03*
X49125000Y-42112500D03*
X48475000Y-42112500D03*
X47825000Y-42112500D03*
X47175000Y-42112500D03*
X46525000Y-42112500D03*
X45875000Y-42112500D03*
X45225000Y-42112500D03*
X45225000Y-36387500D03*
X45875000Y-36387500D03*
X46525000Y-36387500D03*
X47175000Y-36387500D03*
X47825000Y-36387500D03*
X48475000Y-36387500D03*
X49125000Y-36387500D03*
X49775000Y-36387500D03*
%TD*%
D11*
%TO.C,R33*%
X73225000Y-23400000D03*
X71575000Y-23400000D03*
%TD*%
D13*
%TO.C,C10*%
X80100000Y-36100720D03*
X80100000Y-37650720D03*
%TD*%
D18*
%TO.C,D4*%
X45000000Y-25800000D03*
X43600000Y-25800000D03*
%TD*%
D14*
%TO.C,R21*%
X80375000Y-26900000D03*
X82025000Y-26900000D03*
%TD*%
D11*
%TO.C,R47*%
X55425000Y-23400000D03*
X53775000Y-23400000D03*
%TD*%
%TO.C,R32*%
X73225000Y-21700000D03*
X71575000Y-21700000D03*
%TD*%
D13*
%TO.C,C1*%
X112000000Y-35425000D03*
X112000000Y-36975000D03*
%TD*%
D11*
%TO.C,R17*%
X90925000Y-30400000D03*
X89275000Y-30400000D03*
%TD*%
%TO.C,R25*%
X82025000Y-21700000D03*
X80375000Y-21700000D03*
%TD*%
%TO.C,R1*%
X45125000Y-27600000D03*
X43475000Y-27600000D03*
%TD*%
D14*
%TO.C,R6*%
X98200000Y-25200000D03*
X99850000Y-25200000D03*
%TD*%
D11*
%TO.C,R45*%
X55425000Y-30400000D03*
X53775000Y-30400000D03*
%TD*%
D19*
%TO.C,BT1*%
X33100000Y-21515000D03*
X33100000Y-43485000D03*
%TD*%
D11*
%TO.C,R19*%
X91000000Y-23400000D03*
X89350000Y-23400000D03*
%TD*%
D20*
%TO.C,R3*%
X112400000Y-31825000D03*
X112400000Y-30175000D03*
%TD*%
D12*
%TO.C,U9*%
X64175000Y-42112500D03*
X63525000Y-42112500D03*
X62875000Y-42112500D03*
X62225000Y-42112500D03*
X61575000Y-42112500D03*
X60925000Y-42112500D03*
X60275000Y-42112500D03*
X59625000Y-42112500D03*
X59625000Y-36387500D03*
X60275000Y-36387500D03*
X60925000Y-36387500D03*
X61575000Y-36387500D03*
X62225000Y-36387500D03*
X62875000Y-36387500D03*
X63525000Y-36387500D03*
X64175000Y-36387500D03*
%TD*%
D14*
%TO.C,R14*%
X89275000Y-26900000D03*
X90925000Y-26900000D03*
%TD*%
D11*
%TO.C,R30*%
X73025000Y-32100000D03*
X71375000Y-32100000D03*
%TD*%
D14*
%TO.C,R5*%
X109375000Y-28400000D03*
X111025000Y-28400000D03*
%TD*%
D11*
%TO.C,R18*%
X91000000Y-21700000D03*
X89350000Y-21700000D03*
%TD*%
D14*
%TO.C,R42*%
X53775000Y-26900000D03*
X55425000Y-26900000D03*
%TD*%
D11*
%TO.C,R16*%
X90925000Y-32200000D03*
X89275000Y-32200000D03*
%TD*%
D14*
%TO.C,R8*%
X98175000Y-28600000D03*
X99825000Y-28600000D03*
%TD*%
D11*
%TO.C,R44*%
X55425000Y-32300000D03*
X53775000Y-32300000D03*
%TD*%
D13*
%TO.C,C5*%
X87300000Y-36075720D03*
X87300000Y-37625720D03*
%TD*%
D14*
%TO.C,R34*%
X62675000Y-25200000D03*
X64325000Y-25200000D03*
%TD*%
D21*
%TO.C,D5*%
X41000000Y-22750000D03*
X41000000Y-21350000D03*
%TD*%
%TO.C,D2*%
X116000000Y-33200000D03*
X116000000Y-31800000D03*
%TD*%
D11*
%TO.C,R31*%
X73125000Y-30400000D03*
X71475000Y-30400000D03*
%TD*%
D14*
%TO.C,R35*%
X62675000Y-26900000D03*
X64325000Y-26900000D03*
%TD*%
D12*
%TO.C,U8*%
X71575000Y-42113220D03*
X70925000Y-42113220D03*
X70275000Y-42113220D03*
X69625000Y-42113220D03*
X68975000Y-42113220D03*
X68325000Y-42113220D03*
X67675000Y-42113220D03*
X67025000Y-42113220D03*
X67025000Y-36388220D03*
X67675000Y-36388220D03*
X68325000Y-36388220D03*
X68975000Y-36388220D03*
X69625000Y-36388220D03*
X70275000Y-36388220D03*
X70925000Y-36388220D03*
X71575000Y-36388220D03*
%TD*%
D22*
%TO.C,R2*%
X110600000Y-30175000D03*
X110600000Y-31825000D03*
%TD*%
D21*
%TO.C,D3*%
X108775000Y-23987500D03*
X108775000Y-22587500D03*
%TD*%
D11*
%TO.C,R26*%
X82025000Y-23400000D03*
X80375000Y-23400000D03*
%TD*%
D13*
%TO.C,C11*%
X58300000Y-36100000D03*
X58300000Y-37650000D03*
%TD*%
D12*
%TO.C,U4*%
X56975000Y-42112500D03*
X56325000Y-42112500D03*
X55675000Y-42112500D03*
X55025000Y-42112500D03*
X54375000Y-42112500D03*
X53725000Y-42112500D03*
X53075000Y-42112500D03*
X52425000Y-42112500D03*
X52425000Y-36387500D03*
X53075000Y-36387500D03*
X53725000Y-36387500D03*
X54375000Y-36387500D03*
X55025000Y-36387500D03*
X55675000Y-36387500D03*
X56325000Y-36387500D03*
X56975000Y-36387500D03*
%TD*%
D14*
%TO.C,R22*%
X80375000Y-28600000D03*
X82025000Y-28600000D03*
%TD*%
D11*
%TO.C,R23*%
X82025000Y-32200000D03*
X80375000Y-32200000D03*
%TD*%
D14*
%TO.C,R28*%
X71575000Y-26900000D03*
X73225000Y-26900000D03*
%TD*%
D11*
%TO.C,R11*%
X99825000Y-21700000D03*
X98175000Y-21700000D03*
%TD*%
%TO.C,R37*%
X64325000Y-32100000D03*
X62675000Y-32100000D03*
%TD*%
%TO.C,R12*%
X99825000Y-23400000D03*
X98175000Y-23400000D03*
%TD*%
%TO.C,R39*%
X64325000Y-21700000D03*
X62675000Y-21700000D03*
%TD*%
%TO.C,R10*%
X99825000Y-30400000D03*
X98175000Y-30400000D03*
%TD*%
D14*
%TO.C,R4*%
X110675000Y-33700000D03*
X112325000Y-33700000D03*
%TD*%
M02*
