%TF.GenerationSoftware,KiCad,Pcbnew,6.0.10*%
%TF.CreationDate,2023-02-04T17:50:08-06:00*%
%TF.ProjectId,button-clicker,62757474-6f6e-42d6-936c-69636b65722e,rev?*%
%TF.SameCoordinates,Original*%
%TF.FileFunction,Soldermask,Top*%
%TF.FilePolarity,Negative*%
%FSLAX46Y46*%
G04 Gerber Fmt 4.6, Leading zero omitted, Abs format (unit mm)*
G04 Created by KiCad (PCBNEW 6.0.10) date 2023-02-04 17:50:08*
%MOMM*%
%LPD*%
G01*
G04 APERTURE LIST*
G04 Aperture macros list*
%AMRoundRect*
0 Rectangle with rounded corners*
0 $1 Rounding radius*
0 $2 $3 $4 $5 $6 $7 $8 $9 X,Y pos of 4 corners*
0 Add a 4 corners polygon primitive as box body*
4,1,4,$2,$3,$4,$5,$6,$7,$8,$9,$2,$3,0*
0 Add four circle primitives for the rounded corners*
1,1,$1+$1,$2,$3*
1,1,$1+$1,$4,$5*
1,1,$1+$1,$6,$7*
1,1,$1+$1,$8,$9*
0 Add four rect primitives between the rounded corners*
20,1,$1+$1,$2,$3,$4,$5,0*
20,1,$1+$1,$4,$5,$6,$7,0*
20,1,$1+$1,$6,$7,$8,$9,0*
20,1,$1+$1,$8,$9,$2,$3,0*%
G04 Aperture macros list end*
%ADD10RoundRect,0.060000X-0.800000X-0.800000X0.800000X-0.800000X0.800000X0.800000X-0.800000X0.800000X0*%
%ADD11C,1.720000*%
%ADD12C,2.220000*%
%ADD13C,1.870000*%
G04 APERTURE END LIST*
D10*
%TO.C,U12*%
X87630000Y-22860000D03*
D11*
X87630000Y-25400000D03*
X87630000Y-27940000D03*
X87630000Y-30480000D03*
X87630000Y-33020000D03*
X92710000Y-33020000D03*
X92710000Y-30480000D03*
X92710000Y-27940000D03*
X92710000Y-25400000D03*
X92710000Y-22860000D03*
%TD*%
D10*
%TO.C,U13*%
X78740000Y-22860000D03*
D11*
X78740000Y-25400000D03*
X78740000Y-27940000D03*
X78740000Y-30480000D03*
X78740000Y-33020000D03*
X83820000Y-33020000D03*
X83820000Y-30480000D03*
X83820000Y-27940000D03*
X83820000Y-25400000D03*
X83820000Y-22860000D03*
%TD*%
D10*
%TO.C,U14*%
X69850000Y-22860000D03*
D11*
X69850000Y-25400000D03*
X69850000Y-27940000D03*
X69850000Y-30480000D03*
X69850000Y-33020000D03*
X74930000Y-33020000D03*
X74930000Y-30480000D03*
X74930000Y-27940000D03*
X74930000Y-25400000D03*
X74930000Y-22860000D03*
%TD*%
D10*
%TO.C,U16*%
X52070000Y-22860000D03*
D11*
X52070000Y-25400000D03*
X52070000Y-27940000D03*
X52070000Y-30480000D03*
X52070000Y-33020000D03*
X57150000Y-33020000D03*
X57150000Y-30480000D03*
X57150000Y-27940000D03*
X57150000Y-25400000D03*
X57150000Y-22860000D03*
%TD*%
D12*
%TO.C,SW2*%
X112260000Y-25490000D03*
X105250000Y-25490000D03*
D13*
X106500000Y-23000000D03*
X111000000Y-23000000D03*
%TD*%
D12*
%TO.C,SW1*%
X114710000Y-35985000D03*
X114710000Y-28975000D03*
D13*
X117200000Y-30225000D03*
X117200000Y-34725000D03*
%TD*%
D10*
%TO.C,U11*%
X96520000Y-22860000D03*
D11*
X96520000Y-25400000D03*
X96520000Y-27940000D03*
X96520000Y-30480000D03*
X96520000Y-33020000D03*
X101600000Y-33020000D03*
X101600000Y-30480000D03*
X101600000Y-27940000D03*
X101600000Y-25400000D03*
X101600000Y-22860000D03*
%TD*%
D10*
%TO.C,U15*%
X60960000Y-22860000D03*
D11*
X60960000Y-25400000D03*
X60960000Y-27940000D03*
X60960000Y-30480000D03*
X60960000Y-33020000D03*
X66040000Y-33020000D03*
X66040000Y-30480000D03*
X66040000Y-27940000D03*
X66040000Y-25400000D03*
X66040000Y-22860000D03*
%TD*%
M02*
