M48
; DRILL file {KiCad 6.0.10} date Sat 04 Feb 2023 05:51:11 PM CST
; FORMAT={-:-/ absolute / metric / decimal}
; #@! TF.CreationDate,2023-02-04T17:51:11-06:00
; #@! TF.GenerationSoftware,Kicad,Pcbnew,6.0.10
; #@! TF.FileFunction,Plated,1,2,PTH
FMAT,2
METRIC
; #@! TA.AperFunction,Plated,PTH,ViaDrill
T1C0.400
; #@! TA.AperFunction,Plated,PTH,ComponentDrill
T2C0.800
; #@! TA.AperFunction,Plated,PTH,ComponentDrill
T3C0.990
; #@! TA.AperFunction,Plated,PTH,ComponentDrill
T4C1.300
%
G90
G05
T1
X21.0Y-25.0
X21.0Y-30.0
X21.0Y-35.0
X21.0Y-40.0
X24.0Y-28.5
X24.0Y-36.0
X25.0Y-22.0
X25.0Y-44.0
X28.0Y-41.0
X29.0Y-29.0
X29.0Y-31.0
X29.0Y-35.0
X29.0Y-37.0
X29.5Y-23.0
X31.0Y-29.0
X31.0Y-31.0
X31.0Y-35.0
X31.0Y-37.0
X33.0Y-29.0
X33.0Y-31.0
X33.0Y-35.0
X33.0Y-37.0
X35.0Y-29.0
X35.0Y-31.0
X35.0Y-35.0
X35.0Y-37.0
X37.0Y-29.0
X37.0Y-31.0
X37.0Y-35.0
X37.0Y-37.0
X37.0Y-41.5
X39.0Y-22.0
X39.0Y-24.0
X40.0Y-44.0
X40.5Y-39.0
X41.0Y-24.0
X42.0Y-41.0
X42.1Y-23.0
X42.1Y-25.8
X42.2Y-27.6
X43.0Y-35.0
X44.0Y-44.0
X45.0Y-29.0
X45.0Y-32.0
X45.2Y-40.6
X46.2Y-23.0
X47.575Y-40.614
X47.8Y-27.8
X48.5Y-39.924
X48.662Y-38.1
X49.8Y-38.05
X50.0Y-21.0
X50.1Y-28.2
X50.481Y-44.144
X51.474Y-42.112
X51.714Y-43.314
X57.2Y-37.75
X58.675Y-42.114
X59.0Y-21.0
X60.85Y-43.579
X60.975Y-38.589
X60.975Y-40.338
X61.975Y-40.614
X62.237Y-43.552
X62.875Y-39.864
X64.175Y-39.8
X64.3Y-38.15
X66.251Y-42.251
X67.5Y-39.0
X68.0Y-21.0
X69.375Y-40.615
X70.3Y-39.925
X70.462Y-38.101
X71.6Y-38.051
X71.889Y-44.141
X72.5Y-43.0
X73.274Y-42.113
X77.0Y-21.0
X79.0Y-37.751
X80.475Y-42.115
X82.65Y-43.58
X82.775Y-38.59
X82.775Y-40.339
X83.775Y-40.615
X84.037Y-43.553
X84.675Y-39.865
X85.975Y-39.801
X86.0Y-21.0
X86.1Y-38.151
X87.835Y-42.265
X89.0Y-39.0
X91.11Y-40.629
X92.035Y-39.94
X92.197Y-38.115
X93.335Y-38.065
X93.471Y-44.124
X94.21Y-43.0
X95.0Y-21.0
X95.008Y-42.128
X100.735Y-37.765
X102.21Y-42.129
X104.0Y-21.0
X104.385Y-43.594
X104.51Y-38.605
X104.51Y-40.354
X104.9Y-23.4
X105.51Y-40.629
X105.772Y-43.567
X106.4Y-29.4
X106.41Y-39.879
X106.5Y-21.0
X107.3Y-25.4
X107.5Y-34.0
X107.71Y-39.815
X107.835Y-38.165
X109.3Y-42.1
X109.7Y-39.6
X110.0Y-21.8
X110.6Y-27.0
X112.5Y-38.4
X114.0Y-21.5
X114.95Y-43.15
X115.0Y-38.0
X115.5Y-26.5
X116.5Y-36.5
X118.5Y-39.0
X119.0Y-27.0
X119.0Y-32.5
T2
X52.07Y-22.86
X52.07Y-25.4
X52.07Y-27.94
X52.07Y-30.48
X52.07Y-33.02
X57.15Y-22.86
X57.15Y-25.4
X57.15Y-27.94
X57.15Y-30.48
X57.15Y-33.02
X60.96Y-22.86
X60.96Y-25.4
X60.96Y-27.94
X60.96Y-30.48
X60.96Y-33.02
X66.04Y-22.86
X66.04Y-25.4
X66.04Y-27.94
X66.04Y-30.48
X66.04Y-33.02
X69.85Y-22.86
X69.85Y-25.4
X69.85Y-27.94
X69.85Y-30.48
X69.85Y-33.02
X74.93Y-22.86
X74.93Y-25.4
X74.93Y-27.94
X74.93Y-30.48
X74.93Y-33.02
X78.74Y-22.86
X78.74Y-25.4
X78.74Y-27.94
X78.74Y-30.48
X78.74Y-33.02
X83.82Y-22.86
X83.82Y-25.4
X83.82Y-27.94
X83.82Y-30.48
X83.82Y-33.02
X87.63Y-22.86
X87.63Y-25.4
X87.63Y-27.94
X87.63Y-30.48
X87.63Y-33.02
X92.71Y-22.86
X92.71Y-25.4
X92.71Y-27.94
X92.71Y-30.48
X92.71Y-33.02
X96.52Y-22.86
X96.52Y-25.4
X96.52Y-27.94
X96.52Y-30.48
X96.52Y-33.02
X101.6Y-22.86
X101.6Y-25.4
X101.6Y-27.94
X101.6Y-30.48
X101.6Y-33.02
T3
X106.5Y-23.0
X111.0Y-23.0
X117.2Y-30.225
X117.2Y-34.725
T4
X105.25Y-25.49
X112.26Y-25.49
X114.71Y-28.975
X114.71Y-35.985
T0
M30
